<?xml version="1.0" encoding="UTF-8"?>
<svg width="115px" height="29px" viewBox="0 0 115 29" version="1.1" xmlns="http://www.w3.org/2000/svg" xmlns:xlink="http://www.w3.org/1999/xlink">
    <title>1BC1A275-EB3A-4977-A68E-8B2CA3D5C9B8</title>
    <g id="UI-kit" stroke="none" stroke-width="1" fill="none" fill-rule="evenodd">
        <g id="UI-KIT" transform="translate(-56.000000, -179.000000)" fill-rule="nonzero">
            <g id="Digital_ai-FC-RGB" transform="translate(56.000000, 179.000000)">
                <path d="M111.659524,6.6265 L111.083083,6.6265 L111.083083,6.3075 L112.524185,6.3075 L112.524185,6.6265 L111.962155,6.6265 L111.962155,8.3665 L111.633584,8.3665 L111.659524,6.6265 Z M112.812406,6.3075 L113.322556,6.3075 L113.801003,7.7575 L113.801003,7.7575 L114.273684,6.3075 L114.786717,6.3075 L114.786717,8.3607 L114.46391,8.3607 L114.46391,6.7106 L114.46391,6.7106 L113.904762,8.3607 L113.677068,8.3607 L113.126566,6.7106 L113.126566,6.7106 L113.126566,8.3607 L112.815288,8.3607 L112.812406,6.3075 Z M101.640977,6.2437 C100.810654,6.21324889 100.094917,6.8263892 99.9923559,7.656 C98.885589,6.5134 97.2744361,5.887 95.4240602,5.887 C93.2581702,5.87129924 91.1769172,6.73226198 89.6483462,8.27626963 C88.1197751,9.82027728 87.2722043,11.9177157 87.2962406,14.0969 C87.2962406,14.21 87.2962406,14.3173 87.2962406,14.4275 C89.0631199,15.1231021 90.2262533,16.8365713 90.2274436,18.7456 C90.2269216,19.2592123 90.1401967,19.7690478 89.9709273,20.2536 C91.4814782,21.5680922 93.4184464,22.2799819 95.4154135,22.2546 C97.1089723,22.2140868 98.7298843,21.5542964 99.9750627,20.3986 C100.015548,21.2795955 100.756606,21.9616886 101.632331,21.924 C102.675689,21.924 103.321303,21.2715 103.321303,20.2217 L103.321303,7.9199 C103.350219,7.46292464 103.180742,7.01579212 102.85674,6.69424041 C102.532738,6.3726887 102.086062,6.20832719 101.632331,6.2437 M95.4010025,18.6499037 C93.5665033,18.6522465 91.9113977,17.5419991 91.2080179,15.8372394 C90.5046382,14.1324798 90.8916275,12.1692329 92.1884026,10.8636211 C93.4851777,9.55800932 95.4361313,9.16738156 97.1308778,9.87401895 C98.8256242,10.5806563 99.9301121,12.2452736 99.9289483,14.0911 C99.9273597,16.6070617 97.9015247,18.6467016 95.4010025,18.6499037 M71.8937343,6.2437 C71.0640154,6.21339029 70.3491746,6.82683477 70.247995,7.656 C69.1412281,6.5134 67.5300752,5.887 65.6796992,5.887 C63.5138093,5.87129924 61.4325563,6.73226198 59.9039853,8.27626963 C58.3754142,9.82027728 57.5278434,11.9177157 57.5518797,14.0969 C57.5518797,18.7369 61.0451128,22.2546 65.6796992,22.2546 C67.373258,22.2140868 68.9941701,21.5542964 70.2393484,20.3986 C70.2798455,21.2784161 71.0191129,21.9600458 71.8937343,21.924 C72.9370927,21.924 73.585589,21.2715 73.585589,20.2217 L73.585589,7.9199 C73.585589,6.902 72.9226817,6.2437 71.8937343,6.2437 M65.5384712,18.6499037 C63.703972,18.6522465 62.0488663,17.5419991 61.3454866,15.8372394 C60.6421069,14.1324798 61.0290962,12.1692329 62.3258713,10.8636211 C63.6226464,9.55800932 65.5736,9.16738156 67.2683465,9.87401895 C68.9630929,10.5806563 70.0675808,12.2452736 70.066417,14.0911 C70.0648284,16.6070617 68.0389934,18.6467016 65.5384712,18.6499037 M14.4657895,0.174 C14.0120585,0.138627186 13.5653821,0.302988701 13.2413802,0.624540409 C12.9173783,0.946092118 12.7479012,1.39322464 12.776817,1.8502 L12.776817,7.6792 C11.7132832,6.5192 10.1194236,5.887 8.24887218,5.887 C3.92556391,5.887 0.123934837,9.7237 0.123934837,14.0969 C0.123934837,18.4701 3.9226817,22.2546 8.24887218,22.2546 C9.99822957,22.2123569 11.666669,21.5045917 12.9180451,20.2739 C13.1053885,21.3411 13.7452381,21.924 14.739599,21.924 C15.1311664,21.9263979 15.5061472,21.7651129 15.7749955,21.4786601 C16.0438438,21.1922074 16.1824245,20.8063024 16.1576441,20.4131 L16.1576441,1.8531 C16.1799491,1.39741867 16.0079531,0.953811662 15.6848595,0.633707536 C15.3617658,0.31360341 14.9182761,0.147419814 14.4657895,0.1769 M8.21716792,18.6499037 C6.3826687,18.6522465 4.72756307,17.5419991 4.02418335,15.8372394 C3.32080362,14.1324798 3.70779293,12.1692329 5.00456803,10.8636211 C6.30134312,9.55800932 8.25229676,9.16738156 9.9470432,9.87401895 C11.6417896,10.5806563 12.7462775,12.2452736 12.7451137,14.0911 C12.7435251,16.6070617 10.7176901,18.6467016 8.21716792,18.6499037 M39.0740602,6.2437 C37.9932331,6.2437 37.4369674,6.7541 37.2957393,7.888 C36.0429365,6.64796954 34.3689445,5.93277835 32.6121554,5.887 C28.2888471,5.887 24.4843358,9.7121 24.4843358,14.0708 C24.4843358,18.4295 28.2830827,22.2546 32.6121554,22.2546 C34.5662907,22.2546 36.1140351,21.6514 37.1055138,20.5146 C37.0132832,23.8119 35.4338346,25.4156 32.283584,25.4156 C31.8260722,25.3843984 31.3774881,25.5537023 31.0532362,25.8799562 C30.7289843,26.20621 30.5607191,26.6575636 30.5917293,27.1179 C30.5917293,28.2025 31.2488722,28.8231 32.3931078,28.8231 C38.3909774,28.8231 40.5180451,24.4296 40.5180451,20.6654 L40.5180451,7.7285 C40.5365519,7.33537389 40.391854,6.95219029 40.1185667,6.67061636 C39.8452794,6.38904242 39.4679852,6.234406 39.0769424,6.2437 M32.537218,18.6499037 C30.7027188,18.6522465 29.0476132,17.5419991 28.3442335,15.8372394 C27.6408537,14.1324798 28.0278431,12.1692329 29.3246182,10.8636211 C30.6213932,9.55800932 32.5723469,9.16738156 34.2670933,9.87401895 C35.9618398,10.5806563 37.0663277,12.2452736 37.0651638,14.0911 C37.0635753,16.6070617 35.0377403,18.6467016 32.537218,18.6499037 M107.95589,6.1277 C107.511461,6.11807952 107.082441,6.29168418 106.768382,6.60823002 C106.454322,6.92477587 106.282526,7.35674446 106.292857,7.8039 L106.252506,20.2739 C106.227877,20.7274333 106.394162,21.1704429 106.710612,21.494365 C107.027062,21.8182872 107.464432,21.9931857 107.915539,21.9762 C108.958897,21.9762 109.607393,21.3237 109.607393,20.2739 L109.647744,7.8039 C109.670987,7.34795779 109.49929,6.90378658 109.175979,6.5834664 C108.852667,6.26314622 108.408621,6.09727213 107.95589,6.1277 M20.5097744,6.0552 C20.0650926,6.04560895 19.6357997,6.21912645 19.32129,6.53557795 C19.0067802,6.85202945 18.8343274,7.28397278 18.8438596,7.7314 L18.8438596,20.2217 C18.8191706,20.6757565 18.985839,21.1192522 19.3029343,21.4432732 C19.6200296,21.7672942 20.0581764,21.9418235 20.5097744,21.924 C21.5531328,21.924 22.1987469,21.2715 22.1987469,20.2217 L22.1987469,7.7314 C22.2219079,7.27599605 22.0505925,6.8323311 21.7279355,6.51211419 C21.4052786,6.19189727 20.9620229,6.02563862 20.5097744,6.0552 M45.1612782,6.0987 C44.7168492,6.08907952 44.2878293,6.26268418 43.9737701,6.57923002 C43.6597109,6.89577587 43.4879146,7.32774446 43.4982456,7.7749 L43.4982456,20.2217 C43.4736162,20.6752333 43.6399015,21.1182429 43.9563517,21.442165 C44.2728018,21.7660872 44.7101711,21.9409857 45.1612782,21.924 C46.2046366,21.924 46.8531328,21.2715 46.8531328,20.2217 L46.8531328,7.7749 C46.8789458,7.31748819 46.7083829,6.87093189 46.3847611,6.54864035 C46.0611392,6.2263488 45.6155941,6.05932974 45.1612782,6.09 M55.5573935,18.6209 C54.456391,18.5281 53.7761905,18.2149 53.7761905,16.9447 L53.7761905,9.7585 L54.6408521,9.7585 C55.0867194,9.77399884 55.5190142,9.60278598 55.8347511,9.2856494 C56.150488,8.96851282 56.3213986,8.53384619 56.3067669,8.0852 C56.3067669,7.0499 55.6525063,6.38 54.6408521,6.38 L53.7761905,6.38 L53.7761905,1.8792 C53.7761905,0.8294 53.1276942,0.1769 52.0843358,0.1769 C51.6332288,0.159914315 51.1958594,0.334812811 50.8794093,0.658734958 C50.5629592,0.982657106 50.3966739,1.42566668 50.4213033,1.8792 L50.4213033,6.4206 C49.6114035,6.5453 49.112782,7.1746 49.112782,8.0852 C49.0763404,8.88924208 49.634786,9.59717819 50.4213033,9.744 L50.4213033,16.9795 C50.4213033,20.1231 52.1016291,21.9095 55.0328321,21.9095 C56.2462406,21.9095 56.9696742,21.3295 56.9696742,20.3435 C56.9696742,19.3575 56.4566416,18.7021 55.5602757,18.6035 M78.4593985,0.174 C78.01202,0.153963647 77.5769029,0.324220431 77.2605195,0.643108772 C76.9441362,0.961997113 76.7756779,1.4000948 76.7963659,1.8502 L76.7963659,20.2217 C76.7717365,20.6752333 76.9380218,21.1182429 77.254472,21.442165 C77.5709221,21.7660872 78.0082914,21.9409857 78.4593985,21.924 C79.5027569,21.924 80.1512531,21.2715 80.1512531,20.2217 L80.1512531,1.8502 C80.1512531,0.8178 79.5027569,0.174 78.4593985,0.174 M88.2588972,16.9621 C88.2022954,16.876345 88.1407007,16.7940346 88.0744361,16.7156 C87.9203824,16.5296643 87.7463959,16.3614116 87.5556391,16.2139 C87.4893484,16.1646 87.4201754,16.1153 87.3481203,16.0689 C86.9934812,15.8346167 86.5954642,15.6748216 86.1779449,15.5991 C86.0016999,15.5698735 85.8233592,15.5553241 85.6447368,15.5555959 C85.1114771,15.5547358 84.5867746,15.6904638 84.1200501,15.95 C84.0303221,15.9975997 83.9436823,16.0508732 83.8606516,16.1095 C82.9867276,16.7024865 82.4628546,17.6937172 82.4628546,18.7543 C82.4628546,19.8148828 82.9867276,20.8061135 83.8606516,21.3991 C83.9443538,21.4566892 84.0309334,21.5099257 84.1200501,21.5586 C85.2547493,22.1769584 86.6487172,22.0416324 87.6449875,21.2164 C87.8022393,21.0862202 87.9461098,20.94049 88.0744361,20.7814 C88.1400068,20.7034143 88.2015741,20.6221083 88.2588972,20.5378 C88.3712252,20.3662668 88.4677018,20.1847418 88.5471178,19.9955 C88.9651051,19.0030247 88.8566909,17.8652837 88.2588972,16.9708" id="Shape" fill="#FFFFFF"></path>
                <path d="M68.5474937,13.3864 C68.6009046,13.6174541 68.6279797,13.8538786 68.6281955,14.0911 C68.6271081,14.2279767 68.6165142,14.3646096 68.5964912,14.5 C68.5813775,14.6291351 68.5573003,14.7570475 68.5244361,14.8828 C68.458273,15.1289864 68.3614311,15.365765 68.2362155,15.5875 C67.5635234,16.8386964 66.132015,17.4701367 64.7616696,17.1201269 C63.3913243,16.7701171 62.4324658,15.5281359 62.4342987,14.1056 C62.4332846,13.8951259 62.4545409,13.6851389 62.4977444,13.4792 C62.701293,12.4765663 63.3826319,11.6391595 64.3192982,11.2404 C65.0872341,10.9116071 65.9551218,10.9116071 66.7230576,11.2404 C67.4147897,11.5300363 67.9782151,12.062926 68.3082707,12.7397 C68.4077373,12.9464157 68.4850323,13.1632058 68.5388471,13.3864 M8.21716792,10.9793986 C6.96606372,10.9782268 5.8375029,11.7356239 5.35791791,12.8982932 C4.87833292,14.0609624 5.1422113,15.3998354 6.02646342,16.2903768 C6.91071554,17.1809182 8.24112659,17.447674 9.39710833,16.9662123 C10.5530901,16.4847507 11.3068976,15.349929 11.3068976,14.0911 C11.3084242,13.2658569 10.9834848,12.4739278 10.4037998,11.8901198 C9.82411486,11.3063118 9.03734838,10.978628 8.21716792,10.9793986 M96.6028822,11.223 C96.5106516,11.1853 96.4155388,11.1505 96.3146617,11.1186 C96.1673349,11.0742117 96.0170902,11.0402948 95.8650376,11.0171 C95.7097731,10.9912374 95.5526139,10.9786259 95.3952381,10.9793664 C95.083582,10.979443 94.7736831,11.0263615 94.4758145,11.1186 C94.3807018,11.1505 94.285589,11.1853 94.187594,11.223 C93.2519613,11.6238839 92.570524,12.4600885 92.3631579,13.4618 C92.3224896,13.6690573 92.3022162,13.8798423 92.3026253,14.0911 C92.3018951,14.9151781 92.6263765,15.7058343 93.2047619,16.2893 C93.3489444,16.42956 93.5051944,16.5566904 93.6716792,16.6692 C93.9209108,16.8374783 94.192629,16.9692941 94.4786967,17.0607 C94.9282435,17.1992796 95.4029012,17.2349501 95.8679198,17.1651 C96.0200391,17.1409358 96.1702836,17.1060499 96.3175439,17.0607 C96.6038752,16.9699625 96.8756853,16.8381021 97.1245614,16.6692 C97.2880515,16.5562754 97.4413946,16.429156 97.5828321,16.2893 C98.1630819,15.7068522 98.4887693,14.9157846 98.4878466,14.0911 C98.4873109,13.8797465 98.4660721,13.6689607 98.4244361,13.4618 C98.2179878,12.4596472 97.5362427,11.6230648 96.6,11.223 M33.7362155,11.223 C32.8840402,10.8608362 31.9153578,10.9023106 31.0968404,11.3360055 C30.278323,11.7697003 29.6962647,12.5498924 29.5109023,13.4618 C29.4678391,13.6687407 29.4465854,13.8796738 29.4474937,14.0911 C29.413096,15.2238856 29.9940805,16.2857537 30.9637527,16.8623739 C31.9334249,17.4389941 33.138129,17.4389941 34.1078012,16.8623739 C35.0774733,16.2857537 35.6584578,15.2238856 35.6240602,14.0911 C35.6235265,13.8797465 35.6022876,13.6689607 35.5606516,13.4618 C35.3555884,12.4589822 34.6733777,11.6218285 33.7362155,11.223" id="Shape" fill="#649A3D"></path>
            </g>
        </g>
    </g>
</svg>
