<svg width="300" height="80" viewBox="0 0 300 80" fill="none" xmlns="http://www.w3.org/2000/svg">
<path d="M294.091 17.2821H293.032V16.6828L295.769 16.6878V17.2871H294.71L294.705 20.5337H294.091V17.2821ZM296.264 16.6878H297.228L298.122 19.4199H298.137L299.031 16.6878H300L299.995 20.5287H299.385L299.39 17.442H299.38L298.327 20.5287H297.897L296.863 17.437H296.853L296.848 20.5237H296.264V16.6878ZM275.226 16.5429C273.577 16.5429 272.339 17.6268 272.124 19.1851C270.041 17.0424 267.004 15.8636 263.518 15.8636C254.937 15.8536 248.204 22.5966 248.194 31.2175C248.194 31.4273 248.199 31.6321 248.209 31.8369C251.436 33.1056 253.723 36.2523 253.718 39.9234C253.718 40.9124 253.543 41.8614 253.234 42.7455C255.906 45.098 259.462 46.4966 263.478 46.5015C266.929 46.5065 270.196 44.8183 272.069 43.0402C272.209 44.7384 273.453 45.8972 275.186 45.9022C277.149 45.9022 278.372 44.6834 278.372 42.7155L278.397 19.6896C278.407 17.7766 277.159 16.5429 275.226 16.5429ZM263.443 39.7536C258.743 39.7486 254.917 35.9176 254.927 31.2076C254.932 26.5025 258.763 22.6765 263.463 22.6815C268.163 22.6865 271.989 26.5175 271.984 31.2275C271.979 35.9326 268.148 39.7586 263.443 39.7536ZM219.199 16.483C217.551 16.483 216.312 17.5668 216.098 19.1252C214.015 16.9825 210.978 15.8037 207.492 15.8037C198.911 15.7937 192.183 22.5366 192.173 31.1576C192.163 39.8635 198.736 46.4316 207.462 46.4416C210.918 46.4466 214.18 44.7584 216.053 42.9802C216.193 44.6785 217.436 45.8372 219.169 45.8422C221.132 45.8422 222.356 44.6235 222.356 42.6556L222.381 19.6297C222.381 17.7167 221.132 16.483 219.199 16.483ZM207.202 39.6887C202.502 39.6837 198.676 35.8527 198.681 31.1426C198.686 26.4376 202.517 22.6116 207.217 22.6166C211.922 22.6215 215.743 26.4525 215.738 31.1626C215.738 35.8677 211.907 39.6937 207.202 39.6887ZM111.053 5C109.115 5 107.866 6.22871 107.866 8.13172L107.856 19.0403C105.858 16.8676 102.856 15.6788 99.3349 15.6738C91.1785 15.6688 84.021 22.8413 84.011 31.0327C84.001 39.1642 91.1485 46.3067 99.3 46.3167C102.916 46.3217 106.303 44.4587 108.096 42.6206C108.445 44.6185 109.649 45.7124 111.522 45.7124C113.071 45.7124 114.194 44.5236 114.199 42.8853L114.239 8.14171C114.239 6.26368 112.961 5.00499 111.053 5ZM99.245 39.5688C94.545 39.5638 90.719 35.7328 90.724 31.0227C90.729 26.3177 94.5599 22.4917 99.26 22.4967C103.96 22.5017 107.786 26.3327 107.781 31.0427C107.776 35.7478 103.945 39.5738 99.245 39.5688ZM157.384 16.413C155.346 16.413 154.297 17.3621 154.033 19.4848C152.135 17.5668 148.788 15.7338 145.212 15.7338C137.06 15.7238 129.898 22.8763 129.893 31.0327C129.883 39.1942 137.025 46.3567 145.182 46.3667C148.868 46.3717 151.78 45.2479 153.648 43.1101C153.468 49.2836 150.486 52.2805 144.558 52.2755C142.625 52.2755 141.371 53.5242 141.366 55.4572C141.366 57.485 142.6 58.6438 144.752 58.6488C156.051 58.6638 160.066 50.4424 160.071 43.3998L160.096 19.1901C160.106 17.5818 158.962 16.413 157.384 16.413ZM145.052 39.6188C140.347 39.6138 136.526 35.7828 136.531 31.0727C136.536 26.3676 140.367 22.5416 145.067 22.5466C149.767 22.5516 153.593 26.3826 153.588 31.0927C153.583 35.8027 149.752 39.6237 145.052 39.6188ZM287.118 16.3381C285.33 16.3381 283.982 17.6817 283.982 19.4698L283.877 42.8254C283.877 44.7034 285.16 46.0121 287.008 46.0171C288.971 46.0171 290.195 44.7983 290.2 42.8354L290.305 19.4798C290.3 17.6018 289.021 16.3381 287.118 16.3381ZM122.421 16.0235C120.633 16.0235 119.284 17.367 119.284 19.1552L119.259 42.5357C119.259 44.4137 120.543 45.7274 122.391 45.7274C124.354 45.7274 125.577 44.5086 125.577 42.5407L125.602 19.1602C125.602 17.2871 124.324 16.0235 122.421 16.0235ZM168.852 16.1533C167.064 16.1533 165.715 17.4969 165.715 19.285L165.69 42.5856C165.69 44.4637 166.974 45.7773 168.822 45.7773C170.785 45.7773 172.009 44.5586 172.009 42.5906L172.034 19.29C172.034 17.417 170.755 16.1533 168.852 16.1533ZM188.402 39.6287C186.329 39.4539 185.045 38.8695 185.05 36.492L185.065 23.0261H186.708C188.527 23.0261 189.845 21.7125 189.845 19.8944C189.845 17.9564 188.621 16.7077 186.713 16.7027H185.07L185.08 8.27657C185.08 6.30863 183.861 5.08991 181.898 5.08491C180.055 5.08491 178.762 6.39354 178.762 8.26658L178.752 16.7727C177.223 17.0024 176.284 18.1812 176.284 19.8794C176.284 21.4777 177.263 22.7065 178.747 22.9862L178.732 36.532C178.727 42.4108 181.883 45.7873 187.403 45.7973C189.685 45.8023 191.054 44.7034 191.054 42.8703C191.054 40.9723 190.09 39.7936 188.402 39.6287ZM231.576 5.13486C229.733 5.13486 228.44 6.42351 228.44 8.26658L228.4 42.6506C228.4 44.5286 229.683 45.8422 231.532 45.8422C233.494 45.8422 234.718 44.6235 234.723 42.6556L234.763 8.27157C234.758 6.3386 233.539 5.13985 231.576 5.13486ZM249.992 36.5769C249.887 36.4171 249.772 36.2623 249.648 36.1174C249.358 35.7678 249.028 35.4581 248.669 35.1784C248.544 35.0835 248.414 34.9886 248.279 34.9037C247.615 34.4691 246.86 34.1645 246.046 34.0246C245.722 33.9697 245.387 33.9397 245.047 33.9397C244.018 33.9397 243.049 34.1994 242.205 34.6589C242.036 34.7489 241.871 34.8487 241.711 34.9586C240.123 36.0325 239.079 37.8456 239.074 39.9084C239.074 41.9713 240.113 43.7894 241.701 44.8633C241.861 44.9731 242.026 45.073 242.19 45.1629C243.034 45.6225 244.003 45.8872 245.032 45.8872C246.476 45.8872 247.799 45.3777 248.828 44.5286C249.123 44.2839 249.393 44.0141 249.638 43.7195C249.762 43.5746 249.877 43.4198 249.982 43.2599C250.197 42.9403 250.382 42.6056 250.532 42.246C250.831 41.5317 251.001 40.7476 251.001 39.9234C251.001 39.0993 250.836 38.3151 250.537 37.5959C250.392 37.2313 250.207 36.8916 249.992 36.5769Z" fill="#495260"/>
<path d="M212.877 29.8191C212.976 30.2437 213.031 30.6832 213.031 31.1377C213.031 31.3875 213.016 31.6372 212.986 31.877C212.956 32.1217 212.912 32.3565 212.852 32.5912C212.732 33.0557 212.557 33.5003 212.332 33.9098C211.348 35.7229 209.425 36.9567 207.218 36.9567C204.006 36.9567 201.404 34.3494 201.404 31.1377C201.404 30.7382 201.444 30.3436 201.523 29.964C201.908 28.071 203.217 26.5076 204.96 25.7734C205.654 25.4787 206.418 25.3138 207.223 25.3138C208.027 25.3138 208.791 25.4787 209.485 25.7734C210.789 26.3228 211.838 27.3417 212.452 28.6054C212.632 28.99 212.777 29.3946 212.877 29.8191ZM99.2556 25.3138C96.0439 25.3138 93.4417 27.9211 93.4417 31.1327C93.4417 34.3444 96.0439 36.9517 99.2556 36.9517C102.467 36.9517 105.074 34.3444 105.074 31.1327C105.074 27.9211 102.467 25.3138 99.2556 25.3138ZM265.716 25.7734C265.541 25.6984 265.367 25.6335 265.182 25.5786C264.907 25.4937 264.627 25.4287 264.338 25.3838C264.048 25.3388 263.753 25.3138 263.454 25.3138C262.854 25.3138 262.27 25.4037 261.725 25.5736C261.546 25.6285 261.366 25.6984 261.191 25.7684C259.453 26.5026 258.144 28.066 257.755 29.959C257.68 30.3386 257.635 30.7282 257.635 31.1327C257.635 32.7411 258.284 34.1945 259.338 35.2484C259.603 35.5132 259.892 35.7529 260.197 35.9577C260.662 36.2724 261.171 36.5221 261.72 36.6919C262.27 36.8618 262.849 36.9517 263.449 36.9517C263.748 36.9517 264.048 36.9317 264.333 36.8867C264.622 36.8418 264.902 36.7768 265.177 36.6919C265.721 36.5221 266.236 36.2724 266.7 35.9577C267.01 35.7479 267.3 35.5132 267.559 35.2484C268.613 34.1945 269.263 32.7411 269.263 31.1327C269.263 30.7332 269.223 30.3386 269.143 29.959C268.763 28.071 267.459 26.5076 265.716 25.7734ZM147.32 25.7734C146.626 25.4787 145.862 25.3138 145.058 25.3138C144.253 25.3138 143.489 25.4787 142.795 25.7734C141.057 26.5076 139.748 28.071 139.359 29.964C139.284 30.3436 139.239 30.7332 139.239 31.1377C139.239 34.3544 141.841 36.9567 145.053 36.9567C148.264 36.9567 150.872 34.3494 150.872 31.1377C150.872 30.7382 150.832 30.3436 150.752 29.964C150.372 28.071 149.063 26.5076 147.32 25.7734Z" fill="#80B528"/>
<path d="M235.96 66.289C235.69 66.289 235.519 66.1574 235.448 65.8943L235.278 64.5821C234.815 65.144 234.286 65.5956 233.688 65.937C233.098 66.2712 232.419 66.4384 231.651 66.4384C231.032 66.4384 230.47 66.321 229.965 66.0863C229.46 65.8445 229.03 65.4925 228.674 65.0302C228.319 64.5679 228.045 63.9918 227.853 63.3019C227.661 62.6121 227.565 61.8191 227.565 60.923C227.565 60.1264 227.671 59.3867 227.885 58.704C228.098 58.0141 228.404 57.4167 228.802 56.9118C229.208 56.4068 229.698 56.0121 230.274 55.7276C230.85 55.436 231.505 55.2902 232.237 55.2902C232.899 55.2902 233.464 55.404 233.934 55.6316C234.403 55.8521 234.823 56.165 235.192 56.5704V50.5749H237.091V66.289H235.96ZM232.28 64.9022C232.899 64.9022 233.439 64.7599 233.902 64.4754C234.371 64.1909 234.801 63.7891 235.192 63.2699V58.0426C234.844 57.5732 234.46 57.246 234.04 57.0611C233.628 56.8691 233.169 56.7731 232.664 56.7731C231.654 56.7731 230.879 57.1322 230.338 57.8505C229.798 58.5689 229.528 59.593 229.528 60.923C229.528 61.627 229.588 62.2316 229.709 62.7365C229.83 63.2344 230.008 63.6469 230.242 63.974C230.477 64.2941 230.765 64.5288 231.106 64.6781C231.448 64.8275 231.839 64.9022 232.28 64.9022ZM244.764 55.3115C245.411 55.3115 246.008 55.4218 246.556 55.6423C247.103 55.8556 247.576 56.1685 247.975 56.581C248.373 56.9864 248.682 57.4914 248.903 58.0959C249.13 58.6933 249.244 59.3761 249.244 60.1442C249.244 60.4429 249.212 60.642 249.148 60.7416C249.084 60.8412 248.963 60.8909 248.785 60.8909H241.595C241.609 61.5737 241.702 62.1676 241.873 62.6725C242.043 63.1775 242.278 63.6006 242.577 63.942C242.875 64.2763 243.231 64.5288 243.643 64.6995C244.056 64.863 244.518 64.9448 245.03 64.9448C245.507 64.9448 245.916 64.8915 246.257 64.7848C246.606 64.671 246.904 64.5501 247.153 64.4221C247.402 64.2941 247.608 64.1767 247.772 64.07C247.943 63.9562 248.089 63.8993 248.209 63.8993C248.366 63.8993 248.487 63.9598 248.572 64.0807L249.106 64.7741C248.871 65.0586 248.59 65.3075 248.263 65.5209C247.936 65.7271 247.584 65.8978 247.207 66.033C246.837 66.1681 246.453 66.2677 246.054 66.3317C245.656 66.4028 245.261 66.4384 244.87 66.4384C244.124 66.4384 243.434 66.3139 242.801 66.065C242.175 65.8089 241.631 65.4391 241.168 64.9555C240.713 64.4648 240.358 63.8602 240.102 63.1419C239.846 62.4236 239.718 61.5986 239.718 60.6669C239.718 59.913 239.831 59.2089 240.059 58.5546C240.294 57.9003 240.628 57.3349 241.062 56.8584C241.496 56.3748 242.025 55.9979 242.651 55.7276C243.277 55.4502 243.981 55.3115 244.764 55.3115ZM244.806 56.7091C243.889 56.7091 243.167 56.9758 242.641 57.5092C242.114 58.0355 241.787 58.768 241.659 59.7068H247.537C247.537 59.2658 247.477 58.864 247.356 58.5013C247.235 58.1315 247.057 57.815 246.823 57.5518C246.588 57.2816 246.3 57.0753 245.958 56.9331C245.624 56.7837 245.24 56.7091 244.806 56.7091ZM251.888 69.9482V55.4822H253.019C253.289 55.4822 253.46 55.6138 253.531 55.8769L253.691 57.1571C254.153 56.5953 254.68 56.1437 255.27 55.8023C255.867 55.4609 256.554 55.2902 257.329 55.2902C257.948 55.2902 258.509 55.4111 259.014 55.6529C259.519 55.8876 259.95 56.2397 260.305 56.7091C260.661 57.1713 260.935 57.7474 261.127 58.4373C261.319 59.1272 261.415 59.9202 261.415 60.8163C261.415 61.6128 261.308 62.356 261.095 63.0459C260.881 63.7287 260.575 64.3225 260.177 64.8275C259.779 65.3253 259.288 65.72 258.705 66.0116C258.129 66.2961 257.478 66.4384 256.753 66.4384C256.084 66.4384 255.512 66.3281 255.035 66.1076C254.566 65.8872 254.15 65.5742 253.787 65.1689V69.9482H251.888ZM256.699 56.8264C256.081 56.8264 255.537 56.9686 255.067 57.2531C254.605 57.5376 254.178 57.9394 253.787 58.4586V63.686C254.135 64.1554 254.516 64.4861 254.928 64.6781C255.348 64.8701 255.814 64.9662 256.326 64.9662C257.329 64.9662 258.1 64.607 258.641 63.8887C259.181 63.1704 259.452 62.1462 259.452 60.8163C259.452 60.1122 259.388 59.5077 259.26 59.0027C259.139 58.4977 258.961 58.0852 258.726 57.7652C258.492 57.438 258.204 57.1998 257.862 57.0504C257.521 56.9011 257.133 56.8264 256.699 56.8264ZM265.986 50.5749V66.289H264.087V50.5749H265.986ZM273.92 55.3115C274.71 55.3115 275.421 55.4431 276.054 55.7063C276.694 55.9694 277.234 56.3428 277.675 56.8264C278.123 57.31 278.465 57.8968 278.699 58.5866C278.941 59.2694 279.062 60.0339 279.062 60.8803C279.062 61.7337 278.941 62.5018 278.699 63.1846C278.465 63.8673 278.123 64.4505 277.675 64.9342C277.234 65.4178 276.694 65.7912 276.054 66.0543C275.421 66.3103 274.71 66.4384 273.92 66.4384C273.131 66.4384 272.416 66.3103 271.776 66.0543C271.143 65.7912 270.602 65.4178 270.154 64.9342C269.706 64.4505 269.361 63.8673 269.12 63.1846C268.878 62.5018 268.757 61.7337 268.757 60.8803C268.757 60.0339 268.878 59.2694 269.12 58.5866C269.361 57.8968 269.706 57.31 270.154 56.8264C270.602 56.3428 271.143 55.9694 271.776 55.7063C272.416 55.4431 273.131 55.3115 273.92 55.3115ZM273.92 64.9555C274.987 64.9555 275.784 64.5999 276.31 63.8887C276.836 63.1704 277.099 62.1711 277.099 60.8909C277.099 59.6037 276.836 58.6009 276.31 57.8825C275.784 57.1642 274.987 56.8051 273.92 56.8051C273.38 56.8051 272.91 56.8975 272.512 57.0824C272.114 57.2674 271.779 57.5341 271.509 57.8825C271.246 58.231 271.047 58.6613 270.912 59.1734C270.784 59.6783 270.72 60.2509 270.72 60.8909C270.72 61.531 270.784 62.1036 270.912 62.6085C271.047 63.1135 271.246 63.5402 271.509 63.8887C271.779 64.2301 272.114 64.4932 272.512 64.6781C272.91 64.863 273.38 64.9555 273.92 64.9555ZM284.513 69.4788C284.449 69.621 284.367 69.7348 284.268 69.8201C284.175 69.9055 284.029 69.9482 283.83 69.9482H282.422L284.396 65.6596L279.936 55.4822H281.579C281.743 55.4822 281.871 55.5249 281.963 55.6102C282.056 55.6885 282.123 55.7774 282.166 55.8769L285.057 62.6832C285.121 62.8397 285.174 62.9961 285.217 63.1526C285.267 63.309 285.309 63.4691 285.345 63.6326C285.395 63.4691 285.445 63.309 285.494 63.1526C285.544 62.9961 285.601 62.8361 285.665 62.6725L288.471 55.8769C288.513 55.7632 288.585 55.6707 288.684 55.5996C288.791 55.5213 288.905 55.4822 289.026 55.4822H290.54L284.513 69.4788Z" fill="#495260"/>
<path fill-rule="evenodd" clip-rule="evenodd" d="M64.9785 40.1562C64.9785 56.6266 51.6266 69.9785 35.1562 69.9785C18.6859 69.9785 5.33404 56.6266 5.33404 40.1562C5.33404 23.6859 18.6859 10.334 35.1562 10.334C51.6266 10.334 64.9785 23.6859 64.9785 40.1562ZM70.3125 40.1562C70.3125 59.5725 54.5725 75.3125 35.1562 75.3125C15.74 75.3125 0 59.5725 0 40.1562C0 20.74 15.74 5 35.1562 5C54.5725 5 70.3125 20.74 70.3125 40.1562ZM54.6235 20.7914C55.2812 28.5061 53.1172 35.2792 48.173 40.8494C46.6416 42.6102 44.8151 44.1958 42.8224 45.6474C43.7051 48.5326 43.3267 51.5746 41.705 54.3377C40.127 57.0482 37.466 59.3652 34.2551 60.8466C33.9296 61.0304 33.5676 61.0791 33.2537 61.0791C32.6264 61.0791 32.0452 60.8531 31.585 60.4032L31.5704 60.3889C30.9307 59.7069 30.7518 58.6297 31.2233 57.7648C32.7172 55.0161 32.376 52.0001 30.5676 50.2324L30.5216 50.1875L22.3822 42.2314C20.5693 40.4592 17.4695 40.1237 14.6481 41.5889C13.7963 42.0326 12.6985 41.9358 11.9839 41.2435C11.2273 40.5555 11.0611 39.5237 11.4607 38.6308L11.4661 38.6189C12.9818 35.4706 15.3111 32.8596 18.138 31.3141C20.9618 29.7756 24.068 29.4099 26.9723 30.2337C32.2862 23.2942 40.7366 17.7838 52.4814 18.6914L52.4909 18.6921C53.6305 18.8035 54.5068 19.6502 54.6227 20.7835L54.6235 20.7914ZM27.1494 30.776C24.2822 29.872 21.1838 30.1884 18.3629 31.7254C15.6344 33.2171 13.3684 35.7485 11.8886 38.8223C11.6651 39.3217 11.662 39.8642 11.8795 40.3307C11.6622 39.8643 11.6654 39.3219 11.8888 38.8227C13.3686 35.7489 15.6346 33.2175 18.3631 31.7258C21.184 30.1889 24.2824 29.8724 27.1496 30.7765C32.3753 23.8151 40.7456 18.2551 52.4455 19.1592C53.0577 19.219 53.5686 19.5362 53.8709 20.006C53.5686 19.536 53.0576 19.2186 52.4453 19.1587C40.7454 18.2547 32.3751 23.8147 27.1494 30.776ZM31.6352 57.9887C32.7591 55.9206 32.9142 53.6677 32.1849 51.841C32.9144 53.6678 32.7594 55.9209 31.6354 57.9891C31.376 58.4644 31.3666 59.0285 31.5594 59.5102C31.3664 59.0284 31.3758 58.4641 31.6352 57.9887ZM18.6059 36.5969C18.372 36.5924 18.1369 36.5958 17.9011 36.6073L17.9006 36.6078C19.7504 36.5174 21.554 36.9242 23.1263 37.783C23.6813 36.5173 24.2824 35.2517 25.0224 33.986L25.0219 33.9859C24.9372 34.1309 24.8543 34.2758 24.773 34.4208C24.2253 35.3981 23.754 36.3753 23.3165 37.3526C23.2524 37.4959 23.1889 37.6393 23.1261 37.7826C22.9886 37.7075 22.8494 37.6359 22.7085 37.5677C21.4436 36.9559 20.0463 36.625 18.6059 36.5969ZM19.1456 36.1518C20.4592 36.2429 21.7316 36.5767 22.8986 37.139C23.3106 36.2196 23.7547 35.2956 24.2654 34.3691C22.4437 34.259 20.688 34.9583 19.1456 36.1518ZM36.3523 54.5988L36.3524 54.5982C36.5147 54.4394 36.6716 54.2771 36.8225 54.1113C38.4001 52.3782 39.3237 50.2763 39.1036 48.0873C39.0871 47.9228 39.0641 47.7577 39.0344 47.5924L39.0345 47.5923C39.497 50.1689 38.3409 52.6551 36.3523 54.5988ZM36.79 53.4349C38.0612 51.9046 38.7755 50.1379 38.6533 48.3266C37.7278 48.812 36.7758 49.2705 35.7974 49.6844C36.3508 50.8439 36.6866 52.1108 36.79 53.4349ZM32.6525 46.5069C38.2019 44.3824 50.9653 37.828 50.5031 22.6851L50.5033 22.6851C50.9657 37.8283 38.2021 44.3828 32.6528 46.5073L26.1322 40.1337L26.1323 40.1335L32.6525 46.5069ZM26.6814 40.0148C29.9511 31.7673 37.7195 23.1002 50.0443 23.1477C50.231 37.3996 38.3623 43.7609 32.7644 45.9607L26.6814 40.0148ZM44.9643 28.1872C45.6048 28.8169 45.9774 29.703 45.9774 30.5953C45.9774 31.4906 45.6022 32.3798 44.9576 33.0099C44.3134 33.6396 43.4089 34.0022 42.5027 34.0022C41.5965 34.0022 40.692 33.6396 40.0478 33.0099C39.4031 32.3798 39.028 31.4906 39.028 30.5953C39.028 29.6999 39.4031 28.8108 40.0478 28.1806C40.692 27.5509 41.5965 27.1883 42.5027 27.1883C43.3887 27.1883 44.3047 27.4931 44.9643 28.1872ZM39.497 30.5957C39.497 30.9633 39.571 31.3309 39.7091 31.6737C39.5709 31.3307 39.4968 30.963 39.4968 30.5953C39.4968 30.4854 39.5034 30.3755 39.5164 30.2663C39.5035 30.3764 39.497 30.4865 39.497 30.5957ZM42.5029 27.6575C42.4554 27.6575 42.408 27.6585 42.3605 27.6605C42.4079 27.6582 42.4553 27.657 42.5027 27.657C42.5492 27.657 42.5956 27.658 42.6421 27.6599C42.5957 27.6583 42.5493 27.6575 42.5029 27.6575ZM18.5941 47.2753C20.2589 45.6028 23.1723 44.8796 25.4846 47.185C25.8385 47.5309 26.131 47.9069 26.3598 48.3042C26.131 47.9071 25.8386 47.5312 25.4848 47.1854C23.1726 44.88 20.2591 45.6032 18.5943 47.2758C16.4671 49.3551 16.3746 53.5139 16.3746 54.3276C16.3746 54.5732 16.4253 54.8077 16.5171 55.0217C16.4252 54.8076 16.3743 54.5729 16.3743 54.3271C16.3743 53.5135 16.4668 49.3547 18.5941 47.2753ZM25.8139 46.8513C24.5621 45.6041 23.1217 45.1581 21.7578 45.2713C20.4087 45.3832 19.1645 46.0388 18.2641 46.9424C17.1017 48.0801 16.5227 49.7498 16.2274 51.1812C15.9293 52.6266 15.9056 53.9052 15.9056 54.3271C15.9056 55.5905 16.958 56.604 18.2241 56.604H18.2704C18.7732 56.604 20.068 56.5693 21.5096 56.2723C22.9389 55.9779 24.583 55.4118 25.7198 54.3007C27.1174 52.9345 27.4332 51.4964 27.4332 50.5301C27.4332 49.1735 26.8663 47.8808 25.8139 46.8513ZM21.6041 51.5162C22.023 51.3726 22.3165 51.2084 22.4747 51.0537C22.5599 50.9704 22.6515 50.8551 22.7253 50.7334C22.7844 50.6358 22.8203 50.5538 22.8379 50.4963C22.8226 50.4279 22.7621 50.2873 22.5672 50.0967C22.3323 49.8672 22.1664 49.8235 22.1087 49.8235C21.9794 49.8235 21.818 49.8876 21.5115 50.1872C21.3806 50.3152 21.2248 50.5838 21.0752 50.9953C20.9956 51.2142 20.9231 51.4585 20.8592 51.7176C21.1251 51.6617 21.3768 51.5941 21.6041 51.5162ZM20.7498 52.2168C20.5886 52.2464 20.4245 52.2719 20.2592 52.2929L20.2591 52.2934C21.3228 52.1578 22.3402 51.8414 22.8026 51.3893C23.0338 51.1633 23.265 50.8017 23.3113 50.5305C23.3113 50.4423 23.2901 50.3472 23.2479 50.2479C23.29 50.347 23.3111 50.442 23.3111 50.5301C23.2648 50.8013 23.0336 51.1629 22.8024 51.3889C22.4118 51.7707 21.6255 52.0557 20.7498 52.2168Z" fill="#80B528"/>
</svg>
