<svg width="125" height="29" viewBox="0 0 125 29" fill="none" xmlns="http://www.w3.org/2000/svg">
<path d="M113.559 6.63914H112.987V6.31515L114.466 6.31784V6.64184H113.894L113.891 8.39679H113.559V6.63914ZM114.734 6.31784H115.255L115.738 7.79471H115.746L116.229 6.31784H116.753L116.751 8.39409H116.421L116.424 6.72553H116.418L115.849 8.39409H115.617L115.058 6.72283H115.052L115.05 8.39139H114.734V6.31784ZM103.362 6.23955C102.471 6.23955 101.801 6.82543 101.685 7.66781C100.559 6.50954 98.9175 5.87236 97.0329 5.87236C92.3944 5.86696 88.7549 9.51187 88.7495 14.172C88.7495 14.2853 88.7522 14.396 88.7576 14.5067C90.5018 15.1925 91.7383 16.8935 91.7356 18.8779C91.7356 19.4125 91.6411 19.9255 91.4737 20.4034C92.9182 21.6751 94.8406 22.431 97.0113 22.4337C98.877 22.4364 100.643 21.5239 101.655 20.5627C101.731 21.4807 102.403 22.1071 103.34 22.1098C104.401 22.1098 105.063 21.451 105.063 20.3872L105.076 7.9405C105.081 6.90643 104.406 6.23955 103.362 6.23955ZM96.9924 18.7861C94.4518 18.7834 92.3836 16.7126 92.389 14.1666C92.3917 11.6232 94.4626 9.55507 97.0032 9.55777C99.5438 9.56047 101.612 11.6313 101.609 14.1774C101.607 16.7207 99.5357 18.7888 96.9924 18.7861ZM73.0764 6.20715C72.1854 6.20715 71.5158 6.79303 71.3997 7.63541C70.2739 6.47714 68.6323 5.83996 66.7478 5.83996C62.1093 5.83456 58.4725 9.47947 58.4671 14.1396C58.4617 18.8455 62.0148 22.3959 66.7316 22.4013C68.5999 22.404 70.363 21.4915 71.3754 20.5303C71.451 21.4483 72.1233 22.0747 73.0602 22.0774C74.1213 22.0774 74.7828 21.4186 74.7828 20.3548L74.7963 7.9081C74.7963 6.87403 74.1213 6.20715 73.0764 6.20715ZM66.5912 18.751C64.0505 18.7483 61.9824 16.6775 61.9851 14.1315C61.9878 11.5881 64.0586 9.51997 66.5993 9.52267C69.1426 9.52537 71.208 11.5962 71.2053 14.1423C71.2053 16.6856 69.1345 18.7537 66.5912 18.751ZM14.6174 0C13.5699 0 12.8949 0.664184 12.8949 1.69286L12.8895 7.58951C11.8095 6.41504 10.1869 5.77246 8.2834 5.76976C3.87441 5.76706 0.00540552 9.64416 5.65347e-06 14.0721C-0.00539421 18.4675 3.85821 22.3285 8.2645 22.3339C10.2193 22.3366 12.0498 21.3295 13.0191 20.3359C13.2081 21.4159 13.8588 22.0072 14.8712 22.0072C15.7082 22.0072 16.3157 21.3646 16.3184 20.479L16.34 1.69826C16.34 0.683083 15.6488 0.00269993 14.6174 0ZM8.2348 18.6862C5.69416 18.6835 3.62602 16.6127 3.62872 14.0667C3.63142 11.5233 5.70226 9.45517 8.2429 9.45787C10.7835 9.46057 12.8517 11.5314 12.849 14.0775C12.8463 16.6208 10.7754 18.6889 8.2348 18.6862ZM39.662 6.16935C38.5605 6.16935 37.9935 6.68234 37.8504 7.82981C36.8244 6.79303 35.0154 5.80216 33.0823 5.80216C28.676 5.79676 24.8043 9.66306 24.8016 14.0721C24.7962 18.4837 28.6571 22.3554 33.0661 22.3608C35.0586 22.3635 36.6327 21.7561 37.6425 20.6005C37.5453 23.9376 35.9334 25.5576 32.7286 25.5549C31.6837 25.5549 31.006 26.2299 31.0033 27.2747C31.0033 28.3709 31.6702 28.9973 32.8339 29C38.9411 29.0081 41.1119 24.564 41.1146 20.7571L41.1281 7.67051C41.1335 6.80113 40.5152 6.16935 39.662 6.16935ZM32.9959 18.7132C30.4526 18.7105 28.3871 16.6397 28.3898 14.0937C28.3925 11.5503 30.4634 9.48217 33.004 9.48487C35.5446 9.48757 37.6128 11.5584 37.6101 14.1045C37.6074 16.6505 35.5365 18.7159 32.9959 18.7132ZM109.79 6.12885C108.824 6.12885 108.095 6.85513 108.095 7.82171L108.038 20.4466C108.038 21.4618 108.732 22.1692 109.731 22.1719C110.792 22.1719 111.453 21.5131 111.456 20.452L111.513 7.82711C111.51 6.81193 110.819 6.12885 109.79 6.12885ZM20.7625 5.95875C19.7959 5.95875 19.0669 6.68504 19.0669 7.65161L19.0534 20.29C19.0534 21.3052 19.7473 22.0153 20.7463 22.0153C21.8074 22.0153 22.4688 21.3565 22.4688 20.2927L22.4823 7.65431C22.4823 6.64184 21.7912 5.95875 20.7625 5.95875ZM45.8611 6.02895C44.8945 6.02895 44.1655 6.75523 44.1655 7.72181L44.152 20.317C44.152 21.3322 44.8459 22.0423 45.8449 22.0423C46.9059 22.0423 47.5674 21.3835 47.5674 20.3197L47.5809 7.72451C47.5809 6.71203 46.8897 6.02895 45.8611 6.02895ZM56.4286 18.7186C55.3081 18.6241 54.6143 18.3083 54.617 17.0231L54.6251 9.74406H55.5133C56.4961 9.74406 57.2089 9.03398 57.2089 8.0512C57.2089 7.00363 56.5474 6.32864 55.516 6.32594H54.6278L54.6332 1.77116C54.6332 0.707383 53.9744 0.0485988 52.9133 0.0458989C51.917 0.0458989 51.2177 0.753281 51.2177 1.76576L51.2123 6.36374C50.3862 6.48794 49.8786 7.12512 49.8786 8.0431C49.8786 8.90708 50.4078 9.57127 51.2096 9.72246L51.2015 17.0447C51.1988 20.2225 52.9052 22.0477 55.8886 22.0531C57.1225 22.0558 57.8623 21.4618 57.8623 20.4709C57.8623 19.4449 57.3412 18.8077 56.4286 18.7186ZM79.7668 0.0728981C78.7706 0.0728981 78.0713 0.769481 78.0713 1.76576L78.0497 20.3521C78.0497 21.3673 78.7436 22.0774 79.7425 22.0774C80.8036 22.0774 81.4651 21.4186 81.4678 20.3548L81.4894 1.76846C81.4867 0.723582 80.8279 0.075598 79.7668 0.0728981ZM89.7215 17.069C89.6648 16.9826 89.6027 16.8989 89.5352 16.8206C89.3786 16.6316 89.2004 16.4642 89.006 16.313C88.9385 16.2617 88.8683 16.2104 88.7954 16.1645C88.4363 15.9296 88.0286 15.7649 87.5885 15.6893C87.413 15.6596 87.2322 15.6434 87.0486 15.6434C86.4924 15.6434 85.9686 15.7838 85.5123 16.0322C85.4205 16.0808 85.3314 16.1348 85.245 16.1942C84.3864 16.7747 83.8221 17.7548 83.8194 18.8698C83.8194 19.9849 84.381 20.9677 85.2396 21.5482C85.326 21.6076 85.4151 21.6616 85.5042 21.7102C85.9605 21.9586 86.4843 22.1017 87.0405 22.1017C87.8207 22.1017 88.5362 21.8263 89.0924 21.3673C89.2517 21.235 89.3975 21.0892 89.5298 20.9299C89.5973 20.8516 89.6594 20.7679 89.7161 20.6815C89.8322 20.5087 89.9321 20.3278 90.0131 20.1334C90.1751 19.7473 90.2669 19.3234 90.2669 18.8779C90.2669 18.4324 90.1778 18.0086 90.0158 17.6198C89.9375 17.4227 89.8376 17.2391 89.7215 17.069Z" fill="white"/>
<path d="M69.6585 13.4161C69.7125 13.6455 69.7422 13.8831 69.7422 14.1288C69.7422 14.2638 69.7341 14.3988 69.7179 14.5284C69.7017 14.6607 69.6774 14.7876 69.645 14.9145C69.5802 15.1656 69.4857 15.4059 69.3642 15.6273C68.8323 16.6074 67.7928 17.2743 66.5994 17.2743C64.8634 17.2743 63.4567 15.8649 63.4567 14.1288C63.4567 13.9128 63.4783 13.6995 63.5215 13.4944C63.7294 12.4711 64.4368 11.626 65.3791 11.2291C65.7544 11.0698 66.1675 10.9807 66.6021 10.9807C67.0368 10.9807 67.4499 11.0698 67.8252 11.2291C68.5299 11.5261 69.0969 12.0769 69.429 12.76C69.5262 12.9679 69.6045 13.1866 69.6585 13.4161ZM8.24038 10.9807C6.50432 10.9807 5.09766 12.3901 5.09766 14.1261C5.09766 15.8622 6.50432 17.2716 8.24038 17.2716C9.97644 17.2716 11.3858 15.8622 11.3858 14.1261C11.3858 12.3901 9.97644 10.9807 8.24038 10.9807ZM98.2211 11.2291C98.1266 11.1886 98.0321 11.1535 97.9322 11.1238C97.7837 11.0779 97.6325 11.0428 97.4759 11.0185C97.3193 10.9942 97.16 10.9807 96.998 10.9807C96.674 10.9807 96.3581 11.0293 96.0638 11.1211C95.9666 11.1508 95.8694 11.1886 95.7749 11.2264C94.8354 11.6233 94.128 12.4684 93.9174 13.4917C93.8769 13.6968 93.8526 13.9074 93.8526 14.1261C93.8526 14.9955 94.2036 15.7812 94.7733 16.3509C94.9163 16.494 95.0729 16.6236 95.2376 16.7343C95.4887 16.9044 95.7641 17.0394 96.0611 17.1312C96.3581 17.223 96.6713 17.2716 96.9953 17.2716C97.1573 17.2716 97.3193 17.2608 97.4732 17.2365C97.6298 17.2122 97.781 17.1771 97.9295 17.1312C98.2238 17.0394 98.5019 16.9044 98.753 16.7343C98.9204 16.6209 99.077 16.494 99.2174 16.3509C99.787 15.7812 100.138 14.9955 100.138 14.1261C100.138 13.9101 100.116 13.6968 100.073 13.4917C99.868 12.4711 99.1633 11.626 98.2211 11.2291ZM34.2218 11.2291C33.8466 11.0698 33.4335 10.9807 32.9988 10.9807C32.5641 10.9807 32.151 11.0698 31.7757 11.2291C30.8361 11.626 30.1287 12.4711 29.9181 13.4944C29.8776 13.6995 29.8533 13.9101 29.8533 14.1288C29.8533 15.8676 31.26 17.2743 32.9961 17.2743C34.7321 17.2743 36.1415 15.8649 36.1415 14.1288C36.1415 13.9128 36.1199 13.6995 36.0767 13.4944C35.8715 12.4711 35.1641 11.626 34.2218 11.2291Z" fill="#80B528"/>
</svg>
