<svg width="300" height="80" viewBox="0 0 300 80" fill="none" xmlns="http://www.w3.org/2000/svg">
<path d="M294.091 17.2821H293.032V16.6828L295.769 16.6878V17.2871H294.71L294.705 20.5337H294.091V17.2821ZM296.264 16.6878H297.228L298.122 19.4199H298.137L299.031 16.6878H300L299.995 20.5287H299.385L299.39 17.442H299.38L298.327 20.5287H297.897L296.863 17.437H296.853L296.848 20.5237H296.264V16.6878ZM275.226 16.5429C273.577 16.5429 272.339 17.6268 272.124 19.1851C270.041 17.0424 267.004 15.8636 263.518 15.8636C254.937 15.8536 248.204 22.5966 248.194 31.2175C248.194 31.4273 248.199 31.6321 248.209 31.8369C251.436 33.1056 253.723 36.2523 253.718 39.9234C253.718 40.9124 253.543 41.8614 253.234 42.7455C255.906 45.098 259.462 46.4966 263.478 46.5015C266.929 46.5065 270.196 44.8183 272.069 43.0402C272.209 44.7384 273.453 45.8972 275.186 45.9022C277.149 45.9022 278.372 44.6834 278.372 42.7155L278.397 19.6896C278.407 17.7766 277.159 16.5429 275.226 16.5429ZM263.443 39.7536C258.743 39.7486 254.917 35.9176 254.927 31.2076C254.932 26.5025 258.763 22.6765 263.463 22.6815C268.163 22.6865 271.989 26.5175 271.984 31.2275C271.979 35.9326 268.148 39.7586 263.443 39.7536ZM219.199 16.483C217.551 16.483 216.312 17.5668 216.098 19.1252C214.015 16.9825 210.978 15.8037 207.492 15.8037C198.911 15.7937 192.183 22.5366 192.173 31.1576C192.163 39.8635 198.736 46.4316 207.462 46.4416C210.918 46.4466 214.18 44.7584 216.053 42.9802C216.193 44.6785 217.436 45.8372 219.169 45.8422C221.132 45.8422 222.356 44.6235 222.356 42.6556L222.381 19.6297C222.381 17.7167 221.132 16.483 219.199 16.483ZM207.202 39.6887C202.502 39.6837 198.676 35.8527 198.681 31.1426C198.686 26.4376 202.517 22.6116 207.217 22.6166C211.922 22.6215 215.743 26.4525 215.738 31.1626C215.738 35.8677 211.907 39.6937 207.202 39.6887ZM111.053 5C109.115 5 107.866 6.22871 107.866 8.13172L107.856 19.0403C105.858 16.8676 102.856 15.6788 99.3349 15.6738C91.1785 15.6688 84.021 22.8413 84.011 31.0327C84.001 39.1642 91.1485 46.3067 99.3 46.3167C102.916 46.3217 106.303 44.4587 108.096 42.6206C108.445 44.6185 109.649 45.7124 111.522 45.7124C113.071 45.7124 114.194 44.5236 114.199 42.8853L114.239 8.14171C114.239 6.26368 112.961 5.00499 111.053 5ZM99.245 39.5688C94.545 39.5638 90.719 35.7328 90.724 31.0227C90.729 26.3177 94.5599 22.4917 99.26 22.4967C103.96 22.5017 107.786 26.3327 107.781 31.0427C107.776 35.7478 103.945 39.5738 99.245 39.5688ZM157.384 16.413C155.346 16.413 154.297 17.3621 154.033 19.4848C152.135 17.5668 148.788 15.7338 145.212 15.7338C137.06 15.7238 129.898 22.8763 129.893 31.0327C129.883 39.1942 137.025 46.3567 145.182 46.3667C148.868 46.3717 151.78 45.2479 153.648 43.1101C153.468 49.2836 150.486 52.2805 144.558 52.2755C142.625 52.2755 141.371 53.5242 141.366 55.4572C141.366 57.485 142.6 58.6438 144.752 58.6488C156.051 58.6638 160.066 50.4424 160.071 43.3998L160.096 19.1901C160.106 17.5818 158.962 16.413 157.384 16.413ZM145.052 39.6188C140.347 39.6138 136.526 35.7828 136.531 31.0727C136.536 26.3676 140.367 22.5416 145.067 22.5466C149.767 22.5516 153.593 26.3826 153.588 31.0927C153.583 35.8027 149.752 39.6237 145.052 39.6188ZM287.118 16.3381C285.33 16.3381 283.982 17.6817 283.982 19.4698L283.877 42.8254C283.877 44.7034 285.16 46.0121 287.008 46.0171C288.971 46.0171 290.195 44.7983 290.2 42.8354L290.305 19.4798C290.3 17.6018 289.021 16.3381 287.118 16.3381ZM122.421 16.0235C120.633 16.0235 119.284 17.367 119.284 19.1552L119.259 42.5357C119.259 44.4137 120.543 45.7274 122.391 45.7274C124.354 45.7274 125.577 44.5086 125.577 42.5407L125.602 19.1602C125.602 17.2871 124.324 16.0235 122.421 16.0235ZM168.852 16.1533C167.064 16.1533 165.715 17.4969 165.715 19.285L165.69 42.5856C165.69 44.4637 166.974 45.7773 168.822 45.7773C170.785 45.7773 172.009 44.5586 172.009 42.5906L172.034 19.29C172.034 17.417 170.755 16.1533 168.852 16.1533ZM188.402 39.6287C186.329 39.4539 185.045 38.8695 185.05 36.492L185.065 23.0261H186.708C188.527 23.0261 189.845 21.7125 189.845 19.8944C189.845 17.9564 188.621 16.7077 186.713 16.7027H185.07L185.08 8.27657C185.08 6.30863 183.861 5.08991 181.898 5.08491C180.055 5.08491 178.762 6.39354 178.762 8.26658L178.752 16.7727C177.223 17.0024 176.284 18.1812 176.284 19.8794C176.284 21.4777 177.263 22.7065 178.747 22.9862L178.732 36.532C178.727 42.4108 181.883 45.7873 187.403 45.7973C189.685 45.8023 191.054 44.7034 191.054 42.8703C191.054 40.9723 190.09 39.7936 188.402 39.6287ZM231.576 5.13486C229.733 5.13486 228.44 6.42351 228.44 8.26658L228.4 42.6506C228.4 44.5286 229.683 45.8422 231.532 45.8422C233.494 45.8422 234.718 44.6235 234.723 42.6556L234.763 8.27157C234.758 6.3386 233.539 5.13985 231.576 5.13486ZM249.992 36.5769C249.887 36.4171 249.772 36.2623 249.648 36.1174C249.358 35.7678 249.028 35.4581 248.669 35.1784C248.544 35.0835 248.414 34.9886 248.279 34.9037C247.615 34.4691 246.86 34.1645 246.046 34.0246C245.722 33.9697 245.387 33.9397 245.047 33.9397C244.018 33.9397 243.049 34.1994 242.205 34.6589C242.036 34.7489 241.871 34.8487 241.711 34.9586C240.123 36.0325 239.079 37.8456 239.074 39.9084C239.074 41.9713 240.113 43.7894 241.701 44.8633C241.861 44.9731 242.026 45.073 242.19 45.1629C243.034 45.6225 244.003 45.8872 245.032 45.8872C246.476 45.8872 247.799 45.3777 248.828 44.5286C249.123 44.2839 249.393 44.0141 249.638 43.7195C249.762 43.5746 249.877 43.4198 249.982 43.2599C250.197 42.9403 250.382 42.6056 250.532 42.246C250.831 41.5317 251.001 40.7476 251.001 39.9234C251.001 39.0993 250.836 38.3151 250.537 37.5959C250.392 37.2313 250.207 36.8916 249.992 36.5769Z" fill="#495260"/>
<path d="M212.877 29.8191C212.976 30.2437 213.031 30.6832 213.031 31.1377C213.031 31.3875 213.016 31.6372 212.986 31.877C212.956 32.1217 212.912 32.3565 212.852 32.5912C212.732 33.0557 212.557 33.5003 212.332 33.9098C211.348 35.7229 209.425 36.9567 207.218 36.9567C204.006 36.9567 201.404 34.3494 201.404 31.1377C201.404 30.7382 201.444 30.3436 201.523 29.964C201.908 28.071 203.217 26.5076 204.96 25.7734C205.654 25.4787 206.418 25.3138 207.223 25.3138C208.027 25.3138 208.791 25.4787 209.485 25.7734C210.789 26.3228 211.838 27.3417 212.452 28.6054C212.632 28.99 212.777 29.3946 212.877 29.8191ZM99.2556 25.3138C96.0439 25.3138 93.4417 27.9211 93.4417 31.1327C93.4417 34.3444 96.0439 36.9517 99.2556 36.9517C102.467 36.9517 105.074 34.3444 105.074 31.1327C105.074 27.9211 102.467 25.3138 99.2556 25.3138ZM265.716 25.7734C265.541 25.6984 265.367 25.6335 265.182 25.5786C264.907 25.4937 264.627 25.4287 264.338 25.3838C264.048 25.3388 263.753 25.3138 263.454 25.3138C262.854 25.3138 262.27 25.4037 261.725 25.5736C261.546 25.6285 261.366 25.6984 261.191 25.7684C259.453 26.5026 258.144 28.066 257.755 29.959C257.68 30.3386 257.635 30.7282 257.635 31.1327C257.635 32.7411 258.284 34.1945 259.338 35.2484C259.603 35.5132 259.892 35.7529 260.197 35.9577C260.662 36.2724 261.171 36.5221 261.72 36.6919C262.27 36.8618 262.849 36.9517 263.449 36.9517C263.748 36.9517 264.048 36.9317 264.333 36.8867C264.622 36.8418 264.902 36.7768 265.177 36.6919C265.721 36.5221 266.236 36.2724 266.7 35.9577C267.01 35.7479 267.3 35.5132 267.559 35.2484C268.613 34.1945 269.263 32.7411 269.263 31.1327C269.263 30.7332 269.223 30.3386 269.143 29.959C268.763 28.071 267.459 26.5076 265.716 25.7734ZM147.32 25.7734C146.626 25.4787 145.862 25.3138 145.058 25.3138C144.253 25.3138 143.489 25.4787 142.795 25.7734C141.057 26.5076 139.748 28.071 139.359 29.964C139.284 30.3436 139.239 30.7332 139.239 31.1377C139.239 34.3544 141.841 36.9567 145.053 36.9567C148.264 36.9567 150.872 34.3494 150.872 31.1377C150.872 30.7382 150.832 30.3436 150.752 29.964C150.372 28.071 149.063 26.5076 147.32 25.7734Z" fill="#80B528"/>
<path d="M224.58 66.2889V55.4822H225.668C225.874 55.4822 226.016 55.5213 226.095 55.5995C226.173 55.6777 226.226 55.8129 226.255 56.0049L226.383 57.6905C226.752 56.9366 227.208 56.3498 227.748 55.9302C228.296 55.5035 228.936 55.2901 229.668 55.2901C229.967 55.2901 230.237 55.3257 230.479 55.3968C230.721 55.4608 230.945 55.5533 231.151 55.6742L230.906 57.093C230.856 57.2709 230.746 57.3598 230.575 57.3598C230.476 57.3598 230.323 57.3277 230.116 57.2637C229.91 57.1926 229.622 57.1571 229.252 57.1571C228.591 57.1571 228.036 57.3491 227.588 57.7331C227.147 58.1172 226.777 58.6755 226.479 59.408V66.2889H224.58ZM237.676 55.3115C238.323 55.3115 238.921 55.4217 239.468 55.6422C240.016 55.8556 240.489 56.1685 240.887 56.581C241.286 56.9864 241.595 57.4913 241.815 58.0958C242.043 58.6933 242.157 59.376 242.157 60.1441C242.157 60.4428 242.125 60.642 242.061 60.7415C241.997 60.8411 241.876 60.8909 241.698 60.8909H234.508C234.522 61.5736 234.615 62.1675 234.785 62.6725C234.956 63.1774 235.191 63.6006 235.489 63.942C235.788 64.2762 236.144 64.5287 236.556 64.6994C236.969 64.863 237.431 64.9448 237.943 64.9448C238.419 64.9448 238.828 64.8914 239.17 64.7847C239.518 64.6709 239.817 64.55 240.066 64.422C240.315 64.294 240.521 64.1767 240.685 64.07C240.855 63.9562 241.001 63.8993 241.122 63.8993C241.279 63.8993 241.399 63.9597 241.485 64.0806L242.018 64.7741C241.783 65.0586 241.503 65.3075 241.175 65.5208C240.848 65.7271 240.496 65.8978 240.119 66.0329C239.749 66.168 239.365 66.2676 238.967 66.3316C238.569 66.4027 238.174 66.4383 237.783 66.4383C237.036 66.4383 236.346 66.3138 235.713 66.0649C235.087 65.8089 234.543 65.439 234.081 64.9554C233.626 64.4647 233.27 63.8602 233.014 63.1419C232.758 62.4235 232.63 61.5985 232.63 60.6669C232.63 59.913 232.744 59.2089 232.972 58.5546C233.206 57.9003 233.541 57.3349 233.974 56.8584C234.408 56.3747 234.938 55.9978 235.564 55.7275C236.19 55.4502 236.894 55.3115 237.676 55.3115ZM237.719 56.709C236.801 56.709 236.08 56.9757 235.553 57.5091C235.027 58.0354 234.7 58.7679 234.572 59.7067H240.45C240.45 59.2658 240.39 58.864 240.269 58.5012C240.148 58.1314 239.97 57.8149 239.735 57.5518C239.5 57.2815 239.212 57.0753 238.871 56.933C238.537 56.7837 238.153 56.709 237.719 56.709ZM246.913 50.5748V66.2889H245.014V50.5748H246.913ZM254.751 55.3115C255.398 55.3115 255.996 55.4217 256.543 55.6422C257.091 55.8556 257.564 56.1685 257.962 56.581C258.36 56.9864 258.67 57.4913 258.89 58.0958C259.118 58.6933 259.232 59.376 259.232 60.1441C259.232 60.4428 259.2 60.642 259.136 60.7415C259.072 60.8411 258.951 60.8909 258.773 60.8909H251.583C251.597 61.5736 251.689 62.1675 251.86 62.6725C252.031 63.1774 252.265 63.6006 252.564 63.942C252.863 64.2762 253.218 64.5287 253.631 64.6994C254.043 64.863 254.506 64.9448 255.018 64.9448C255.494 64.9448 255.903 64.8914 256.245 64.7847C256.593 64.6709 256.892 64.55 257.141 64.422C257.39 64.294 257.596 64.1767 257.759 64.07C257.93 63.9562 258.076 63.8993 258.197 63.8993C258.353 63.8993 258.474 63.9597 258.56 64.0806L259.093 64.7741C258.858 65.0586 258.577 65.3075 258.25 65.5208C257.923 65.7271 257.571 65.8978 257.194 66.0329C256.824 66.168 256.44 66.2676 256.042 66.3316C255.644 66.4027 255.249 66.4383 254.858 66.4383C254.111 66.4383 253.421 66.3138 252.788 66.0649C252.162 65.8089 251.618 65.439 251.156 64.9554C250.701 64.4647 250.345 63.8602 250.089 63.1419C249.833 62.4235 249.705 61.5985 249.705 60.6669C249.705 59.913 249.819 59.2089 250.046 58.5546C250.281 57.9003 250.615 57.3349 251.049 56.8584C251.483 56.3747 252.013 55.9978 252.639 55.7275C253.265 55.4502 253.969 55.3115 254.751 55.3115ZM254.794 56.709C253.876 56.709 253.154 56.9757 252.628 57.5091C252.102 58.0354 251.775 58.7679 251.647 59.7067H257.525C257.525 59.2658 257.464 58.864 257.343 58.5012C257.222 58.1314 257.045 57.8149 256.81 57.5518C256.575 57.2815 256.287 57.0753 255.946 56.933C255.612 56.7837 255.228 56.709 254.794 56.709ZM269.813 66.2889H268.97C268.785 66.2889 268.635 66.2605 268.522 66.2036C268.408 66.1467 268.333 66.0258 268.298 65.8409L268.084 64.8381C267.8 65.0941 267.522 65.3253 267.252 65.5315C266.982 65.7306 266.697 65.9013 266.399 66.0436C266.1 66.1787 265.78 66.2818 265.439 66.3529C265.104 66.4241 264.731 66.4596 264.318 66.4596C263.899 66.4596 263.504 66.4027 263.134 66.2889C262.772 66.168 262.455 65.9902 262.185 65.7555C261.915 65.5208 261.698 65.2257 261.534 64.8701C261.378 64.5074 261.299 64.0806 261.299 63.5899C261.299 63.1632 261.417 62.7542 261.651 62.3631C261.886 61.9648 262.263 61.6128 262.782 61.3069C263.309 61.0011 263.995 60.7522 264.841 60.5602C265.688 60.361 266.722 60.2472 267.946 60.2188V59.376C267.946 58.5368 267.764 57.9038 267.402 57.4771C267.046 57.0433 266.516 56.8263 265.812 56.8263C265.35 56.8263 264.959 56.8868 264.639 57.0077C264.326 57.1215 264.052 57.2531 263.817 57.4024C263.589 57.5447 263.39 57.6762 263.22 57.7971C263.056 57.9109 262.892 57.9678 262.729 57.9678C262.601 57.9678 262.487 57.9358 262.388 57.8718C262.295 57.8007 262.22 57.7154 262.164 57.6158L261.822 57.0077C262.42 56.4316 263.063 56.0013 263.753 55.7169C264.443 55.4324 265.207 55.2901 266.047 55.2901C266.651 55.2901 267.188 55.3897 267.658 55.5888C268.127 55.788 268.522 56.0654 268.842 56.421C269.162 56.7766 269.404 57.2068 269.567 57.7118C269.731 58.2168 269.813 58.7715 269.813 59.376V66.2889ZM264.884 65.1261C265.218 65.1261 265.524 65.0941 265.801 65.0301C266.079 64.959 266.338 64.863 266.58 64.7421C266.829 64.6141 267.064 64.4611 267.284 64.2833C267.512 64.1055 267.732 63.9028 267.946 63.6753V61.4243C267.071 61.4527 266.328 61.5239 265.716 61.6377C265.104 61.7443 264.607 61.8866 264.222 62.0644C263.838 62.2422 263.557 62.452 263.38 62.6938C263.209 62.9356 263.124 63.2059 263.124 63.5046C263.124 63.7891 263.17 64.0344 263.262 64.2407C263.355 64.4469 263.479 64.6176 263.636 64.7527C263.792 64.8808 263.977 64.9768 264.19 65.0408C264.404 65.0977 264.635 65.1261 264.884 65.1261ZM279.09 57.2637C279.005 57.4202 278.873 57.4984 278.696 57.4984C278.589 57.4984 278.468 57.4593 278.333 57.3811C278.198 57.3029 278.031 57.2175 277.831 57.1251C277.639 57.0255 277.408 56.9366 277.138 56.8584C276.868 56.773 276.548 56.7303 276.178 56.7303C275.858 56.7303 275.57 56.773 275.314 56.8584C275.058 56.9366 274.837 57.0468 274.652 57.1891C274.475 57.3313 274.336 57.4984 274.236 57.6905C274.144 57.8754 274.098 58.0781 274.098 58.2985C274.098 58.5759 274.176 58.8071 274.332 58.992C274.496 59.1769 274.709 59.3369 274.972 59.472C275.236 59.6072 275.534 59.7281 275.869 59.8347C276.203 59.9343 276.544 60.0446 276.893 60.1655C277.248 60.2793 277.593 60.4073 277.927 60.5495C278.262 60.6918 278.56 60.8696 278.824 61.0829C279.087 61.2963 279.297 61.5594 279.453 61.8724C279.617 62.1782 279.698 62.548 279.698 62.9818C279.698 63.4797 279.609 63.942 279.432 64.3687C279.254 64.7883 278.991 65.1546 278.642 65.4675C278.294 65.7733 277.867 66.0151 277.362 66.1929C276.857 66.3707 276.274 66.4596 275.612 66.4596C274.859 66.4596 274.176 66.3387 273.564 66.0969C272.953 65.848 272.433 65.5315 272.007 65.1475L272.455 64.422C272.512 64.3296 272.579 64.2584 272.657 64.2087C272.736 64.1589 272.839 64.134 272.967 64.134C273.095 64.134 273.23 64.1838 273.372 64.2833C273.514 64.3829 273.685 64.4931 273.884 64.6141C274.09 64.735 274.336 64.8452 274.62 64.9448C274.912 65.0443 275.275 65.0941 275.708 65.0941C276.078 65.0941 276.402 65.0479 276.679 64.9554C276.957 64.8559 277.188 64.7243 277.373 64.5607C277.558 64.3971 277.693 64.2087 277.778 63.9953C277.871 63.7819 277.917 63.5544 277.917 63.3125C277.917 63.0138 277.835 62.7685 277.671 62.5764C277.515 62.3773 277.305 62.2102 277.042 62.075C276.779 61.9328 276.477 61.8119 276.135 61.7123C275.801 61.6056 275.456 61.4954 275.1 61.3816C274.752 61.2678 274.407 61.1398 274.066 60.9976C273.731 60.8482 273.433 60.6633 273.169 60.4428C272.906 60.2224 272.693 59.9521 272.529 59.6321C272.373 59.3049 272.295 58.9102 272.295 58.4479C272.295 58.0354 272.38 57.6407 272.551 57.2637C272.721 56.8797 272.97 56.5454 273.297 56.2609C273.625 55.9693 274.026 55.7382 274.503 55.5675C274.979 55.3968 275.524 55.3115 276.135 55.3115C276.846 55.3115 277.483 55.4253 278.045 55.6529C278.614 55.8733 279.104 56.1791 279.517 56.5703L279.09 57.2637ZM286.645 55.3115C287.292 55.3115 287.89 55.4217 288.438 55.6422C288.985 55.8556 289.458 56.1685 289.856 56.581C290.255 56.9864 290.564 57.4913 290.784 58.0958C291.012 58.6933 291.126 59.376 291.126 60.1441C291.126 60.4428 291.094 60.642 291.03 60.7415C290.966 60.8411 290.845 60.8909 290.667 60.8909H283.477C283.491 61.5736 283.584 62.1675 283.754 62.6725C283.925 63.1774 284.16 63.6006 284.458 63.942C284.757 64.2762 285.113 64.5287 285.525 64.6994C285.938 64.863 286.4 64.9448 286.912 64.9448C287.388 64.9448 287.797 64.8914 288.139 64.7847C288.487 64.6709 288.786 64.55 289.035 64.422C289.284 64.294 289.49 64.1767 289.654 64.07C289.824 63.9562 289.97 63.8993 290.091 63.8993C290.248 63.8993 290.368 63.9597 290.454 64.0806L290.987 64.7741C290.752 65.0586 290.472 65.3075 290.144 65.5208C289.817 65.7271 289.465 65.8978 289.088 66.0329C288.718 66.168 288.334 66.2676 287.936 66.3316C287.538 66.4027 287.143 66.4383 286.752 66.4383C286.005 66.4383 285.315 66.3138 284.682 66.0649C284.056 65.8089 283.512 65.439 283.05 64.9554C282.595 64.4647 282.239 63.8602 281.983 63.1419C281.727 62.4235 281.599 61.5985 281.599 60.6669C281.599 59.913 281.713 59.2089 281.941 58.5546C282.175 57.9003 282.51 57.3349 282.943 56.8584C283.377 56.3747 283.907 55.9978 284.533 55.7275C285.159 55.4502 285.863 55.3115 286.645 55.3115ZM286.688 56.709C285.77 56.709 285.049 56.9757 284.522 57.5091C283.996 58.0354 283.669 58.7679 283.541 59.7067H289.419C289.419 59.2658 289.359 58.864 289.238 58.5012C289.117 58.1314 288.939 57.8149 288.704 57.5518C288.47 57.2815 288.181 57.0753 287.84 56.933C287.506 56.7837 287.122 56.709 286.688 56.709Z" fill="#495260"/>
<path d="M35.1563 5C15.7439 5 0 20.7439 0 40.1563C0 59.5686 15.7439 75.3125 35.1563 75.3125C54.5686 75.3125 70.3125 59.5686 70.3125 40.1563C70.3125 20.7439 54.4922 5 35.1563 5ZM35.1563 10.5792C51.4351 10.5792 64.6569 23.801 64.6569 40.0798C64.6569 40.9205 64.5805 41.7612 64.5805 42.5255H47.7666V31.6729C47.7666 29.9915 46.391 28.6158 44.7096 28.6158H37.6019V23.0367H48.378C50.0594 23.0367 51.4351 21.661 51.4351 19.9796C51.4351 18.2982 50.0594 16.9226 48.378 16.9226H37.6019V16.3112C37.6019 14.6298 36.2262 13.2541 34.5448 13.2541C32.8635 13.2541 31.4878 14.6298 31.4878 16.3112V16.9226H21.4759C19.7945 16.9226 18.4188 18.2982 18.4188 19.9796C18.4188 21.661 19.7945 23.0367 21.4759 23.0367H31.4878V28.6158H25.0679C23.3865 28.6158 22.0109 29.9915 22.0109 31.6729V42.6019H5.732C5.65557 41.7612 5.65559 40.9969 5.65559 40.1563C5.57916 23.8774 18.8774 10.5792 35.1563 10.5792ZM61.5998 53.1488H9.2476C9.01832 53.1488 8.86548 53.1488 8.6362 53.2252C7.94836 51.7731 7.33698 50.2446 6.80199 48.716H24.5329C25.45 48.716 26.2907 48.3339 26.8257 47.6461C27.59 47.1111 28.0486 46.194 28.0486 45.2004V34.8064H41.5761V45.2004C41.5761 46.1175 42.0346 46.9582 42.6461 47.4932C43.181 48.1811 44.0982 48.6396 45.0153 48.6396H63.3577C62.8991 50.2446 62.2877 51.7731 61.5998 53.1488ZM52.1994 64.2306C52.0465 64.2306 51.8172 64.1542 51.6644 64.1542H18.4188C18.2659 64.1542 18.1131 64.1542 18.0367 64.2306C16.0496 62.855 14.2918 61.1736 12.6868 59.3393H57.5492C56.0207 61.1736 54.1865 62.7785 52.1994 64.2306Z" fill="#80B528"/>
</svg>
